<svg xmlns="http://www.w3.org/2000/svg" xmlns:xlink="http://www.w3.org/1999/xlink" width="102" height="107.333" viewBox="0 0 102 107.333">
  <defs>
    <filter id="Elipse_11502" x="0" y="4.333" width="102" height="103" filterUnits="userSpaceOnUse">
      <feOffset dy="3" input="SourceAlpha"/>
      <feGaussianBlur stdDeviation="3" result="blur"/>
      <feFlood flood-opacity="0.161"/>
      <feComposite operator="in" in2="blur"/>
      <feComposite in="SourceGraphic"/>
    </filter>
    <filter id="Elipse_11502-2" x="0" y="4.333" width="102" height="103" filterUnits="userSpaceOnUse">
      <feOffset dy="6" input="SourceAlpha"/>
      <feGaussianBlur stdDeviation="3" result="blur-2"/>
      <feFlood flood-opacity="0.161" result="color"/>
      <feComposite operator="out" in="SourceGraphic" in2="blur-2"/>
      <feComposite operator="in" in="color"/>
      <feComposite operator="in" in2="SourceGraphic"/>
    </filter>
    <clipPath id="clip-path">
      <rect id="Rectángulo_401455" data-name="Rectángulo 401455" width="23.417" height="33.616" fill="#12263f"/>
    </clipPath>
  </defs>
  <g id="Grupo_1101849" data-name="Grupo 1101849" transform="translate(-1204.333 -380.667)">
    <g id="Grupo_1099493" data-name="Grupo 1099493" transform="translate(1213.142 391.33)">
      <g data-type="innerShadowGroup">
        <g transform="matrix(1, 0, 0, 1, -8.81, -10.66)" filter="url(#Elipse_11502)">
          <ellipse id="Elipse_11502-3" data-name="Elipse 11502" cx="42" cy="42.5" rx="42" ry="42.5" transform="translate(9 10.33)" fill="#e8f57a"/>
        </g>
        <g transform="matrix(1, 0, 0, 1, -8.81, -10.66)" filter="url(#Elipse_11502-2)">
          <ellipse id="Elipse_11502-4" data-name="Elipse 11502" cx="42" cy="42.5" rx="42" ry="42.5" transform="translate(9 10.33)" fill="#fff"/>
        </g>
      </g>
    </g>
    <g id="Grupo_1099583" data-name="Grupo 1099583" transform="translate(-269.417 46)">
      <g id="Grupo_1099580" data-name="Grupo 1099580" transform="translate(1543.333 334.667)">
        <g id="Grupo_1099579" data-name="Grupo 1099579" clip-path="url(#clip-path)">
          <path id="Trazado_877686" data-name="Trazado 877686" d="M11.535.013a11.5,11.5,0,0,1,5.988,1.539A11.754,11.754,0,0,1,22.1,17.265L12.3,33.19a1.219,1.219,0,0,1-.374.389.473.473,0,0,1-.257.031l-.024-.005c-.342-.075-.7-.835-.869-1.111L2.787,19.555C1.056,16.711.057,15.084.067,11.613A6.5,6.5,0,0,1,.1,10.593L.3,9.451A11.813,11.813,0,0,1,9.877.168,10.047,10.047,0,0,1,11.535.013" transform="translate(-0.062 -0.005)" fill="#12263f"/>
        </g>
      </g>
      <circle id="Elipse_11513" data-name="Elipse 11513" cx="5.5" cy="5.5" r="5.5" transform="translate(1549.333 340)" fill="#fff"/>
    </g>
    <g id="Grupo_1101848" data-name="Grupo 1101848" transform="translate(1230 397.271)">
      <g id="Grupo_1101321" data-name="Grupo 1101321" transform="translate(6.8 18.233)">
        <path id="Trazado_897236" data-name="Trazado 897236" d="M91.932,153.283h1.127v-2.748q.256-.225.519-.436H90.056v3.78A3.242,3.242,0,0,1,91.932,153.283Z" transform="translate(-90.056 -150.099)" fill="#ea9b58"/>
        <path id="Trazado_897237" data-name="Trazado 897237" d="M271.212,153.283h1.127a3.241,3.241,0,0,1,1.876.6V150.1h-3.522q.263.211.519.436Z" transform="translate(-248.75 -150.099)" fill="#ea9b58"/>
      </g>
      <path id="Trazado_897238" data-name="Trazado 897238" d="M68,315.676v7.152a.364.364,0,0,1-.562.306L60.2,318.452l-7.237,4.682a.364.364,0,0,1-.562-.306v-7.152H45.071a3.494,3.494,0,0,0-3.493,3.493v18.836a.607.607,0,0,0,.607.607H72.4V315.676Z" transform="translate(-40.667 -277.33)" fill="#7ab8f5"/>
      <g id="Grupo_1101322" data-name="Grupo 1101322" transform="translate(0.911 38.346)">
        <path id="Trazado_897239" data-name="Trazado 897239" d="M46.661,338.006V319.169a3.494,3.494,0,0,1,3.493-3.493H45.072a3.494,3.494,0,0,0-3.493,3.493v18.836a.607.607,0,0,0,.607.607h5.082A.607.607,0,0,1,46.661,338.006Z" transform="translate(-41.579 -315.676)" fill="#afd5f9"/>
      </g>
      <path id="Trazado_897240" data-name="Trazado 897240" d="M141.21,284.434h-5.485a7.02,7.02,0,0,1-1.205-.106l-3.851,3.808v7.152a.364.364,0,0,0,.562.306l7.237-4.682,7.237,4.682a.364.364,0,0,0,.562-.306v-7.152l-3.851-3.808A7.038,7.038,0,0,1,141.21,284.434Z" transform="translate(-118.935 -249.79)" fill="#afd5f9"/>
      <path id="Trazado_897241" data-name="Trazado 897241" d="M168,284.244h-5.485a7.025,7.025,0,0,1-1.352-.132v3.313a1.274,1.274,0,0,0,.365.893l3.729,3.793,3.729-3.793a1.274,1.274,0,0,0,.366-.893v-3.313A7.025,7.025,0,0,1,168,284.244Z" transform="translate(-145.727 -249.6)" fill="#ffbd86"/>
      <path id="Trazado_897242" data-name="Trazado 897242" d="M164.434,286.709v-2.466h-1.917a7.015,7.015,0,0,1-1.352-.132v3.313a1.273,1.273,0,0,0,.365.893l3.729,3.793,1.986-2.02L164.8,287.6A1.274,1.274,0,0,1,164.434,286.709Z" transform="translate(-145.727 -249.599)" fill="#f6a96c"/>
      <g id="Grupo_1101323" data-name="Grupo 1101323" transform="translate(5.418 21.417)">
        <path id="Trazado_897243" data-name="Trazado 897243" d="M83.067,182.552v-6.24H81.94a3.258,3.258,0,0,0-3.258,3.258v1.213a3.258,3.258,0,0,0,3.258,3.258h1.287A7,7,0,0,1,83.067,182.552Z" transform="translate(-78.682 -176.312)" fill="#ffbd86"/>
        <path id="Trazado_897244" data-name="Trazado 897244" d="M274.933,176.312h-1.127v6.24a7,7,0,0,1-.161,1.489h1.287a3.258,3.258,0,0,0,3.258-3.258V179.57A3.258,3.258,0,0,0,274.933,176.312Z" transform="translate(-249.963 -176.312)" fill="#ffbd86"/>
      </g>
      <path id="Trazado_897245" data-name="Trazado 897245" d="M115.3,150.1q-.263.211-.519.436v8.988a6.987,6.987,0,0,0,6.987,6.987h5.485a6.987,6.987,0,0,0,6.987-6.987v-8.988q-.256-.225-.519-.436Z" transform="translate(-104.974 -131.866)" fill="#fed2a4"/>
      <path id="Trazado_897246" data-name="Trazado 897246" d="M118.546,159.523v-8.988c.171-.151.346-.3.522-.436H115.3c-.176.141-.35.286-.521.436v8.988a6.987,6.987,0,0,0,6.987,6.987h3.77A6.987,6.987,0,0,1,118.546,159.523Z" transform="translate(-104.974 -131.866)" fill="#ffbd86"/>
      <path id="Trazado_897247" data-name="Trazado 897247" d="M115.521,34.3v-.8a11.81,11.81,0,0,0-9.515-11.584,2.178,2.178,0,0,1,.023.716l-1.036,7.849h-4.408l-1.036-7.849a2.182,2.182,0,0,1,.023-.716A11.81,11.81,0,0,0,90.056,33.5v.8Z" transform="translate(-83.256 -19.256)" fill="#a4a1c5"/>
      <path id="Trazado_897248" data-name="Trazado 897248" d="M99.548,22.634a2.182,2.182,0,0,1,.023-.716A11.81,11.81,0,0,0,90.056,33.5v.675h5.1V33.5a11.783,11.783,0,0,1,4.6-9.347Z" transform="translate(-83.256 -19.256)" fill="#747565"/>
      <path id="Trazado_897249" data-name="Trazado 897249" d="M315.984,292.36h-5.032v1.864a.607.607,0,0,1-.607.607h-8.777a.607.607,0,0,1-.607-.607V292.36h-5.032a.607.607,0,0,0-.607.607v25.162h20.663a.607.607,0,0,0,.607-.607V292.967A.608.608,0,0,0,315.984,292.36Z" transform="translate(-263.588 -256.846)" fill="#f5827a"/>
      <g id="Grupo_1101324" data-name="Grupo 1101324" transform="translate(31.734 35.514)">
        <path id="Trazado_897250" data-name="Trazado 897250" d="M298.87,314.945a.364.364,0,0,1-.364-.364V292.36h-2.577a.607.607,0,0,0-.607.607v25.162h5.063v-3.184Z" transform="translate(-295.321 -292.36)" fill="#f5827a"/>
      </g>
      <path id="Trazado_897251" data-name="Trazado 897251" d="M333.982,292.36v1.864a.607.607,0,0,1-.607.607H324.6a.607.607,0,0,1-.607-.607V292.36h-2.455v22.221a.364.364,0,0,0,.364.364h14.173a.364.364,0,0,0,.364-.364V292.36Z" transform="translate(-286.617 -256.846)" fill="#fff"/>
      <path id="Trazado_897252" data-name="Trazado 897252" d="M325.357,314.581v-19.75h-.76a.607.607,0,0,1-.607-.607V292.36h-2.455v22.221a.364.364,0,0,0,.364.364h3.822A.364.364,0,0,1,325.357,314.581Z" transform="translate(-286.617 -256.846)" fill="#f2fbff"/>
      <path id="Trazado_897253" data-name="Trazado 897253" d="M366.034,254.4v-.7a2.7,2.7,0,1,0-5.4,0v.7Z" transform="translate(-320.963 -220.51)" fill="#fea613"/>
      <g id="Grupo_1101325" data-name="Grupo 1101325" transform="translate(4.528 14.921)">
        <path id="Trazado_897254" data-name="Trazado 897254" d="M99.708,126.149h-26.7a1.656,1.656,0,1,1,0-3.312h26.7a1.656,1.656,0,1,1,0,3.312Z" transform="translate(-71.356 -122.837)" fill="#747565"/>
      </g>
      <g id="Grupo_1101326" data-name="Grupo 1101326" transform="translate(4.528 14.921)">
        <path id="Trazado_897255" data-name="Trazado 897255" d="M77.747,124.493a1.656,1.656,0,0,1,1.656-1.656H73.012a1.656,1.656,0,0,0,0,3.312H79.4A1.656,1.656,0,0,1,77.747,124.493Z" transform="translate(-71.356 -122.837)" fill="#747565"/>
      </g>
      <g id="Grupo_1101327" data-name="Grupo 1101327" transform="translate(16.272 0.911)">
        <path id="Trazado_897256" data-name="Trazado 897256" d="M168.058,9.968l1.036,7.849H173.5l1.036-7.849A2.182,2.182,0,0,0,172.375,7.5h-2.154A2.182,2.182,0,0,0,168.058,9.968Z" transform="translate(-168.038 -7.5)" fill="#747565"/>
      </g>
      <g id="Grupo_1101328" data-name="Grupo 1101328" transform="translate(16.272 0.911)">
        <path id="Trazado_897257" data-name="Trazado 897257" d="M172.57,7.509c-.064-.006-.13-.009-.2-.009H170.22a2.182,2.182,0,0,0-2.163,2.468l1.036,7.849h2.546L170.6,9.968a2.182,2.182,0,0,1,1.968-2.458Z" transform="translate(-168.038 -7.5)" fill="#747565"/>
      </g>
      <g id="Grupo_1101329" data-name="Grupo 1101329" transform="translate(37.373 33.891)">
        <path id="Trazado_897258" data-name="Trazado 897258" d="M351.128,283.094H342.35a.607.607,0,0,1-.607-.607v-2.879a.607.607,0,0,1,.607-.607h8.777a.607.607,0,0,1,.607.607v2.879A.607.607,0,0,1,351.128,283.094Z" transform="translate(-341.743 -279)" fill="#7ab8f5"/>
      </g>
      <g id="Grupo_1101330" data-name="Grupo 1101330" transform="translate(37.373 33.891)">
        <path id="Trazado_897259" data-name="Trazado 897259" d="M345.54,282.487v-2.879a.607.607,0,0,1,.607-.607h-3.8a.607.607,0,0,0-.607.607v2.879a.607.607,0,0,0,.607.607h3.8A.607.607,0,0,1,345.54,282.487Z" transform="translate(-341.743 -279)" fill="#496f93"/>
      </g>
      <g id="Grupo_1101331" data-name="Grupo 1101331" transform="translate(0 0)">
        <path id="Trazado_897260" data-name="Trazado 897260" d="M154.067,176.657v-1.691a.911.911,0,0,0-1.822,0v1.691a.911.911,0,1,0,1.822,0Z" transform="translate(-137.891 -152.912)"/>
        <path id="Trazado_897261" data-name="Trazado 897261" d="M223.411,177.568a.911.911,0,0,0,.911-.911v-1.691a.911.911,0,1,0-1.822,0v1.691A.911.911,0,0,0,223.411,177.568Z" transform="translate(-199.612 -152.912)"/>
        <path id="Trazado_897262" data-name="Trazado 897262" d="M169.237,239.066a.911.911,0,1,0-1.288-1.288,3.561,3.561,0,0,1-5.031,0,.911.911,0,0,0-1.288,1.288,5.386,5.386,0,0,0,7.608,0Z" transform="translate(-145.901 -208.659)"/>
        <path id="Trazado_897263" data-name="Trazado 897263" d="M184.569,194.682h1.354a.911.911,0,1,0,0-1.822h-.443v-1.5a.911.911,0,1,0-1.822,0v2.407A.911.911,0,0,0,184.569,194.682Z" transform="translate(-165.488 -167.318)"/>
        <path id="Trazado_897264" data-name="Trazado 897264" d="M87.083,44.277a.911.911,0,0,0,.911-.911V36.121A1.52,1.52,0,0,0,86.476,34.6h-4.12v-.1a1.52,1.52,0,0,0-1.518-1.518h-.783a3.612,3.612,0,0,0-7.212,0h-.783A1.52,1.52,0,0,0,70.541,34.5v.1H66.42A1.52,1.52,0,0,0,64.9,36.121v1.314H61.785L59.3,34.982a7.937,7.937,0,0,0,4.574-4.925h.59a4.174,4.174,0,0,0,4.169-4.169V24.675a4.159,4.159,0,0,0-1.382-3.1V19.126a2.565,2.565,0,0,0,0-5.1A12.74,12.74,0,0,0,57.537,1.887,3.092,3.092,0,0,0,54.688,0H52.534a3.093,3.093,0,0,0-2.848,1.888A12.74,12.74,0,0,0,39.97,14.028a2.565,2.565,0,0,0,0,5.1v2.452a4.159,4.159,0,0,0-1.382,3.1v1.213a4.174,4.174,0,0,0,4.169,4.169h.59a7.937,7.937,0,0,0,4.574,4.925l-2.481,2.453H38.484a4.41,4.41,0,0,0-4.4,4.4V60.676A1.52,1.52,0,0,0,35.6,62.194H58.243a.911.911,0,0,0,0-1.822h-3.72V42.884l.052-.053,5.779,3.739A1.275,1.275,0,0,0,62.321,45.5V39.257H64.9V60.372H62.494a.911.911,0,0,0,0,1.822H86.476a1.52,1.52,0,0,0,1.518-1.518V47.618a.911.911,0,1,0-1.822,0V60.372H66.724V36.425h1.362v21.31a1.277,1.277,0,0,0,1.275,1.275H83.534a1.277,1.277,0,0,0,1.275-1.275V36.425h1.362v6.941a.911.911,0,0,0,.911.911ZM66.814,25.889a2.349,2.349,0,0,1-2.347,2.347h-.239c.014-.191.023-.384.023-.578V22.328h.216a2.349,2.349,0,0,1,2.347,2.347v1.213Zm-2.562-5.382V19.144h1.181V20.62a4.165,4.165,0,0,0-.965-.114h-.216ZM51.578,2.255a1.255,1.255,0,0,1,.956-.433h2.154a1.271,1.271,0,0,1,1.26,1.437l-.932,7.057H52.206l-.932-7.057A1.254,1.254,0,0,1,51.578,2.255Zm-8.823,25.98a2.349,2.349,0,0,1-2.347-2.347V24.675a2.35,2.35,0,0,1,2.347-2.347h.216v5.329c0,.195.009.387.023.578ZM41.79,20.62V19.144h1.181v1.362h-.216A4.152,4.152,0,0,0,41.79,20.62Zm-1.527-3.3a.745.745,0,0,1,0-1.49h6.8a.911.911,0,0,0,0-1.822H41.8A10.914,10.914,0,0,1,49.511,3.823l.993,7.524a.911.911,0,0,0,.9.792h4.408a.911.911,0,0,0,.9-.792l.993-7.524A10.914,10.914,0,0,1,65.427,14.01H51.319a.911.911,0,0,0,0,1.822H66.959a.745.745,0,0,1,0,1.49h-26.7Zm4.53,10.335V19.144H62.43v8.513a6.083,6.083,0,0,1-6.076,6.076H50.868A6.083,6.083,0,0,1,44.793,27.657Zm1.93,11.07,1.882-1.861v.96a2.171,2.171,0,0,0,.627,1.532L51.344,41.5l-4.621,2.99ZM52.7,60.372H35.9V41.84a2.585,2.585,0,0,1,2.582-2.582H44.9V45.5a1.275,1.275,0,0,0,1.968,1.071l5.779-3.739.052.053Zm.911-19.161-3.08-3.132a.36.36,0,0,1-.1-.254V35.541c.146.008.293.014.441.014h5.485c.148,0,.295-.006.441-.014v2.284a.361.361,0,0,1-.1.254h0ZM60.5,44.494,55.878,41.5l2.112-2.148a2.172,2.172,0,0,0,.627-1.532v-.96L60.5,38.727ZM76.448,31.4a1.793,1.793,0,0,1,1.777,1.579H74.671A1.793,1.793,0,0,1,76.448,31.4Zm-4.085,3.4h8.17v2.272h-8.17ZM82.988,57.188H69.908V36.425h.633v.953A1.52,1.52,0,0,0,72.059,38.9h8.777a1.52,1.52,0,0,0,1.518-1.518v-.953h.633Z" transform="translate(-34.079 0)"/>
        <path id="Trazado_897265" data-name="Trazado 897265" d="M338.722,340.236l-.854.854-.485-.485a.911.911,0,1,0-1.288,1.288l1.129,1.129a.911.911,0,0,0,1.288,0l1.5-1.5a.911.911,0,0,0-1.289-1.288Z" transform="translate(-299.174 -298.672)"/>
        <path id="Trazado_897266" data-name="Trazado 897266" d="M381.3,348.11h-4.713a.911.911,0,0,0,0,1.822H381.3a.911.911,0,0,0,0-1.822Z" transform="translate(-334.178 -305.824)"/>
        <path id="Trazado_897267" data-name="Trazado 897267" d="M381.3,376.42h-4.713a.911.911,0,0,0,0,1.822H381.3a.911.911,0,0,0,0-1.822Z" transform="translate(-334.178 -330.695)"/>
        <path id="Trazado_897268" data-name="Trazado 897268" d="M338.777,376.42h-2.038a.911.911,0,1,0,0,1.822h2.038a.911.911,0,0,0,0-1.822Z" transform="translate(-299.174 -330.695)"/>
        <path id="Trazado_897269" data-name="Trazado 897269" d="M338.777,404.73h-2.038a.911.911,0,1,0,0,1.822h2.038a.911.911,0,0,0,0-1.822Z" transform="translate(-299.174 -355.566)"/>
        <path id="Trazado_897270" data-name="Trazado 897270" d="M338.777,433.04h-2.038a.911.911,0,1,0,0,1.822h2.038a.911.911,0,0,0,0-1.822Z" transform="translate(-299.174 -380.437)"/>
        <path id="Trazado_897271" data-name="Trazado 897271" d="M381.3,404.73h-4.713a.911.911,0,0,0,0,1.822H381.3a.911.911,0,0,0,0-1.822Z" transform="translate(-334.178 -355.566)"/>
        <path id="Trazado_897272" data-name="Trazado 897272" d="M381.3,433.04h-4.713a.911.911,0,0,0,0,1.822H381.3a.911.911,0,0,0,0-1.822Z" transform="translate(-334.178 -380.437)"/>
      </g>
    </g>
  </g>
</svg>
