<svg xmlns="http://www.w3.org/2000/svg" xmlns:xlink="http://www.w3.org/1999/xlink" width="102" height="106.333" viewBox="0 0 102 106.333">
  <defs>
    <filter id="Elipse_11501" x="0" y="3.333" width="102" height="103" filterUnits="userSpaceOnUse">
      <feOffset dy="3" input="SourceAlpha"/>
      <feGaussianBlur stdDeviation="3" result="blur"/>
      <feFlood flood-opacity="0.161"/>
      <feComposite operator="in" in2="blur"/>
      <feComposite in="SourceGraphic"/>
    </filter>
    <filter id="Elipse_11501-2" x="0" y="3.333" width="102" height="103" filterUnits="userSpaceOnUse">
      <feOffset dy="6" input="SourceAlpha"/>
      <feGaussianBlur stdDeviation="3" result="blur-2"/>
      <feFlood flood-opacity="0.161" result="color"/>
      <feComposite operator="out" in="SourceGraphic" in2="blur-2"/>
      <feComposite operator="in" in="color"/>
      <feComposite operator="in" in2="SourceGraphic"/>
    </filter>
    <clipPath id="clip-path">
      <rect id="Rect치ngulo_401455" data-name="Rect치ngulo 401455" width="23.417" height="33.616" fill="#12263f"/>
    </clipPath>
  </defs>
  <g id="Grupo_1101850" data-name="Grupo 1101850" transform="translate(-912.333 -387.667)">
    <g id="Grupo_1099582" data-name="Grupo 1099582">
      <g id="Grupo_1099492" data-name="Grupo 1099492" transform="translate(921.333 397.479)">
        <g data-type="innerShadowGroup">
          <g transform="matrix(1, 0, 0, 1, -9, -9.81)" filter="url(#Elipse_11501)">
            <ellipse id="Elipse_11501-3" data-name="Elipse 11501" cx="42" cy="42.5" rx="42" ry="42.5" transform="translate(9 9.33)" fill="#e8f57a"/>
          </g>
          <g transform="matrix(1, 0, 0, 1, -9, -9.81)" filter="url(#Elipse_11501-2)">
            <ellipse id="Elipse_11501-4" data-name="Elipse 11501" cx="42" cy="42.5" rx="42" ry="42.5" transform="translate(9 9.33)" fill="#fff"/>
          </g>
        </g>
      </g>
      <g id="Grupo_1099581" data-name="Grupo 1099581" transform="translate(-622 53)">
        <g id="Grupo_1099580" data-name="Grupo 1099580" transform="translate(1543.333 334.667)">
          <g id="Grupo_1099579" data-name="Grupo 1099579" clip-path="url(#clip-path)">
            <path id="Trazado_877686" data-name="Trazado 877686" d="M11.535.013a11.5,11.5,0,0,1,5.988,1.539A11.754,11.754,0,0,1,22.1,17.265L12.3,33.19a1.219,1.219,0,0,1-.374.389.473.473,0,0,1-.257.031l-.024-.005c-.342-.075-.7-.835-.869-1.111L2.787,19.555C1.056,16.711.057,15.084.067,11.613A6.5,6.5,0,0,1,.1,10.593L.3,9.451A11.813,11.813,0,0,1,9.877.168,10.047,10.047,0,0,1,11.535.013" transform="translate(-0.062 -0.005)" fill="#12263f"/>
          </g>
        </g>
        <circle id="Elipse_11513" data-name="Elipse 11513" cx="5.5" cy="5.5" r="5.5" transform="translate(1549.333 340)" fill="#fff"/>
      </g>
    </g>
    <g id="Grupo_1101845" data-name="Grupo 1101845" transform="translate(926.142 408.537)">
      <path id="Trazado_897898" data-name="Trazado 897898" d="M204.5,194.5h30.808v24.883H204.5Z" transform="translate(-180.268 -171.453)" fill="#afd5f9"/>
      <path id="Trazado_897899" data-name="Trazado 897899" d="M307.794,202.794l-4.147-2.37-4.147,2.37V194.5h8.294Z" transform="translate(-264.012 -171.453)" fill="#f5827a"/>
      <rect id="Rect치ngulo_403013" data-name="Rect치ngulo 403013" width="9.479" height="4.74" rx="2.37" transform="translate(27.786 39.636)" fill="#f5eeec"/>
      <path id="Trazado_897900" data-name="Trazado 897900" d="M164.5,404.5h40.287v2.37a2.37,2.37,0,0,1-2.37,2.37H166.87a2.37,2.37,0,0,1-2.37-2.37Z" transform="translate(-145.008 -356.57)" fill="#636177"/>
      <path id="Trazado_897901" data-name="Trazado 897901" d="M9.277,7.5H19.349v3.555H9.277a1.777,1.777,0,0,1,0-3.555Z" transform="translate(-6.611 -6.611)" fill="#496f93"/>
      <path id="Trazado_897902" data-name="Trazado 897902" d="M194.5,444.5h11.849v1.185a5.925,5.925,0,0,1-11.849,0Z" transform="translate(-171.453 -391.83)" fill="#496f93"/>
      <path id="Trazado_897903" data-name="Trazado 897903" d="M374.5,444.5h11.849v1.185a5.925,5.925,0,0,1-11.849,0Z" transform="translate(-330.125 -391.83)" fill="#496f93"/>
      <path id="Trazado_897904" data-name="Trazado 897904" d="M402,444.5h5.332v.889a2.666,2.666,0,0,1-5.332,0Z" transform="translate(-354.366 -391.83)" fill="#f5eeec"/>
      <path id="Trazado_897905" data-name="Trazado 897905" d="M222,444.5h5.332v.889a2.666,2.666,0,0,1-5.332,0Z" transform="translate(-195.695 -391.83)" fill="#f5eeec"/>
      <path id="Trazado_897906" data-name="Trazado 897906" d="M234.5,44.5h23.7V62.274H234.5Z" transform="translate(-206.714 -39.227)" fill="#afd5f9"/>
      <path id="Trazado_897907" data-name="Trazado 897907" d="M315.425,52.794l-2.962-2.37-2.962,2.37V44.5h5.925Z" transform="translate(-272.827 -39.227)" fill="#f5827a"/>
      <g id="Grupo_1101426" data-name="Grupo 1101426">
        <path id="Trazado_897908" data-name="Trazado 897908" d="M235.591,327h-5.925A2.668,2.668,0,0,0,227,329.666v1.185a2.668,2.668,0,0,0,2.666,2.666h5.925a2.668,2.668,0,0,0,2.666-2.666v-1.185A2.668,2.668,0,0,0,235.591,327Zm.889,3.851a.889.889,0,0,1-.889.889h-5.925a.889.889,0,0,1-.889-.889v-1.185a.889.889,0,0,1,.889-.889h5.925a.889.889,0,0,1,.889.889Z" transform="translate(-200.102 -288.253)" fill="#053544"/>
        <path id="Trazado_897909" data-name="Trazado 897909" d="M263.813,297h-5.925a.889.889,0,1,0,0,1.777h5.925a.889.889,0,1,0,0-1.777Z" transform="translate(-226.548 -261.808)" fill="#053544"/>
        <path id="Trazado_897910" data-name="Trazado 897910" d="M227.889,298.777h.592a.889.889,0,1,0,0-1.777h-.592a.889.889,0,1,0,0,1.777Z" transform="translate(-200.102 -261.808)" fill="#053544"/>
        <path id="Trazado_897911" data-name="Trazado 897911" d="M259.666,147h-1.777a.889.889,0,1,0,0,1.777h1.777a.889.889,0,0,0,0-1.777Z" transform="translate(-226.548 -129.582)" fill="#053544"/>
        <path id="Trazado_897912" data-name="Trazado 897912" d="M299.666,147h-1.777a.889.889,0,0,0,0,1.777h1.777a.889.889,0,1,0,0-1.777Z" transform="translate(-261.808 -129.582)" fill="#053544"/>
        <path id="Trazado_897913" data-name="Trazado 897913" d="M59.779,47.041H55.928V23.047a.889.889,0,0,0-.889-.889H52.373V5.273a.889.889,0,0,0-.889-.889h-23.7a.889.889,0,0,0-.889.889V22.158H24.232a.889.889,0,0,0-.889.889V47.041H20.381V4.443a2.668,2.668,0,0,0-2.666-2.666H13.627V.889A.889.889,0,0,0,12.738,0H2.666a2.666,2.666,0,1,0,0,5.332H12.738a.889.889,0,0,0,.889-.889V3.555h4.088a.889.889,0,0,1,.889.889V50.3a3.263,3.263,0,0,0,3.259,3.259h.3v.3a6.813,6.813,0,1,0,13.627,0v-.3h7.7v.3a6.813,6.813,0,1,0,13.627,0v-.3h.3A3.263,3.263,0,0,0,60.668,50.3V47.93a.889.889,0,0,0-.889-.889ZM11.849,3.555H2.666a.889.889,0,1,1,0-1.777h9.183ZM37.562,6.162h4.147v5.557L40.191,10.5a.891.891,0,0,0-1.111,0l-1.518,1.216Zm-8.887,0h7.11v7.406a.889.889,0,0,0,1.444.694l2.407-1.927,2.407,1.927a.893.893,0,0,0,.556.194.879.879,0,0,0,.385-.088.889.889,0,0,0,.5-.8V6.162H50.6v16H28.675Zm7.7,17.774h6.517V29.81L40.076,28.2a.886.886,0,0,0-.882,0L36.377,29.81Zm-11.257,0H34.6v7.406a.889.889,0,0,0,1.329.77l3.706-2.117,3.706,2.117a.889.889,0,0,0,1.329-.77V23.935h9.479V47.041H25.12Zm8.887,29.919a5.036,5.036,0,1,1-10.072,0v-.3h1.481a3.555,3.555,0,1,0,7.11,0h1.481Zm-3.259-.3a1.777,1.777,0,0,1-3.555,0Zm24.587.3a5.036,5.036,0,1,1-10.072,0v-.3h1.481a3.555,3.555,0,1,0,7.11,0h1.481Zm-3.259-.3a1.777,1.777,0,1,1-3.555,0ZM58.891,50.3a1.484,1.484,0,0,1-1.481,1.481H21.862A1.484,1.484,0,0,1,20.381,50.3V48.819h38.51Z" fill="#12263f"/>
      </g>
    </g>
  </g>
</svg>
