<svg xmlns="http://www.w3.org/2000/svg" xmlns:xlink="http://www.w3.org/1999/xlink" width="1328" height="1461.505" viewBox="0 0 1328 1461.505">
  <defs>
    <linearGradient id="linear-gradient" x1="0.479" y1="-0.246" x2="0.47" y2="0.862" gradientUnits="objectBoundingBox">
      <stop offset="0" stop-color="#c5dff9"/>
      <stop offset="1" stop-color="#fff" stop-opacity="0"/>
    </linearGradient>
  </defs>
  <g id="Grupo_1099916" data-name="Grupo 1099916" transform="translate(-135.73 -8891.893)">
    <path id="Trazado_898313" data-name="Trazado 898313" d="M0,0H1328V1206.62H0V0Z" transform="translate(135.73 8891.893)" fill="url(#linear-gradient)"/>
    <path id="Sustracci贸n_4" data-name="Sustracci贸n 4" d="M615.869,358H0V0C21.154,0,42.482.7,63.392,2.091c20.6,1.366,41.312,3.431,61.56,6.137,19.971,2.67,39.962,6.028,59.418,9.98,19.234,3.908,38.4,8.49,56.963,13.619A768.707,768.707,0,0,1,346.648,69.168a642.417,642.417,0,0,1,91.759,49.454c13.984,9.135,27.447,18.811,40.016,28.76,12.6,9.976,24.613,20.466,35.692,31.178a422.332,422.332,0,0,1,31.055,33.393,371.26,371.26,0,0,1,26.108,35.4,329.068,329.068,0,0,1,20.849,37.21A297.559,297.559,0,0,1,607.4,323.378,279.077,279.077,0,0,1,615.869,358Z" transform="translate(1463.73 10353.397) rotate(180)" fill="#e4f1fd"/>
    <path id="Sustracci贸n_2" data-name="Sustracci贸n 2" d="M615.869,358H0V0C21.154,0,42.482.7,63.392,2.091c20.6,1.366,41.312,3.431,61.56,6.137,19.971,2.67,39.962,6.028,59.418,9.98,19.234,3.908,38.4,8.49,56.963,13.619A768.706,768.706,0,0,1,346.648,69.168a642.417,642.417,0,0,1,91.759,49.454c13.984,9.135,27.447,18.811,40.016,28.76,12.6,9.976,24.613,20.466,35.692,31.178a422.334,422.334,0,0,1,31.055,33.393,371.262,371.262,0,0,1,26.108,35.4,329.068,329.068,0,0,1,20.849,37.21A297.548,297.548,0,0,1,607.4,323.378,279.078,279.078,0,0,1,615.869,358Z" transform="translate(135.731 8891.893)" fill="#e4f1fd"/>
  </g>
</svg>
